<?xml version="1.0" encoding="UTF-8" standalone="no"?>
<!-- Created with Inkscape (http://www.inkscape.org/) -->

<svg
   xmlns:dc="http://purl.org/dc/elements/1.1/"
   xmlns:cc="http://creativecommons.org/ns#"
   xmlns:rdf="http://www.w3.org/1999/02/22-rdf-syntax-ns#"
   xmlns:svg="http://www.w3.org/2000/svg"
   xmlns="http://www.w3.org/2000/svg"
   xmlns:sodipodi="http://sodipodi.sourceforge.net/DTD/sodipodi-0.dtd"
   xmlns:inkscape="http://www.inkscape.org/namespaces/inkscape"
   id="svg3004"
   version="1.1"
   inkscape:version="0.48.4 r9939"
   width="220"
   height="146.0345"
   xml:space="preserve"
   sodipodi:docname="fyziklanionline-1-1.svg"
   inkscape:export-filename="/home/michal/fykos/web/fol/resources/design/fyziklanionline-1-1.png"
   inkscape:export-xdpi="90.208199"
   inkscape:export-ydpi="90.208199"><metadata
     id="metadata3010"><rdf:RDF><cc:Work
         rdf:about=""><dc:format>image/svg+xml</dc:format><dc:type
           rdf:resource="http://purl.org/dc/dcmitype/StillImage" /><dc:title></dc:title></cc:Work></rdf:RDF></metadata><defs
     id="defs3008" /><sodipodi:namedview
     pagecolor="#ffffff"
     bordercolor="#666666"
     borderopacity="1"
     objecttolerance="10"
     gridtolerance="10"
     guidetolerance="10"
     inkscape:pageopacity="0"
     inkscape:pageshadow="2"
     inkscape:window-width="1920"
     inkscape:window-height="1056"
     id="namedview3006"
     showgrid="false"
     fit-margin-top="0"
     fit-margin-left="0"
     fit-margin-right="0"
     fit-margin-bottom="0"
     inkscape:zoom="0.95564202"
     inkscape:cx="282.36853"
     inkscape:cy="-107.7505"
     inkscape:window-x="0"
     inkscape:window-y="24"
     inkscape:window-maximized="1"
     inkscape:current-layer="g3856" /><g
     id="g3012"
     inkscape:groupmode="layer"
     inkscape:label="ink_ext_XXXXXX"
     transform="matrix(1.25,0,0,-1.25,-1.9484614,148.10818)"><g
       id="g3014"
       transform="scale(0.1,0.1)"><g
         id="g3856"
         style="stroke:#ffffff;stroke-width:46.84070587;stroke-linecap:round;stroke-linejoin:round;stroke-miterlimit:4;stroke-opacity:1;stroke-dasharray:none"
         transform="matrix(0.08539581,0,0,0.08539581,15.773363,16.689547)"><path
           id="path3016"
           style="fill:none;stroke:#333333;stroke-width:187.84660339;stroke-linecap:round;stroke-linejoin:round;stroke-miterlimit:4;stroke-opacity:1;stroke-dasharray:none"
           d="m 8182.722,8600.43 c 0,-367.747 -54.2998,-736.0957 -130.6564,-1096.143 -395.4184,-215.1941 -568.3036,-227.8267 -865.8299,-294.0773 -1000.6971,-222.854 -2008.3723,-418.3976 -3022.063,-571.7525 -931.6634,-140.9229 -1869.7513,-244.7904 -2809.7361,-310.3593 -234.5722,-16.3622 -473.20274,12.8731 -702.4331,65.3283 -149.493,64.085 -386.82343,110.1636 -419.17233,286.0968 -83.71561,928.03 -171.065768,1763.3413 -131.08761,2765.8831 27.88421,883.2749 101.19823,3164.9909 174.54312,3351.5919 32.17686,81.851 64.35333,163.702 96.5298,245.552 30.17171,76.758 1537.55182,256.621 3520.86362,326.842 1257.3942,44.515 2510.1807,221.37 3768.3811,216.116 120.3098,-0.521 203.5642,-136.712 275.6298,-233.08 67.2131,-89.912 114.2944,-199.354 130.6966,-310.399 76.7577,-519.377 92.2375,-1046.054 147.0186,-1568.199 26.9093,-256.581 83.495,-510.193 98.0124,-767.777 7.3791,-130.938 -21.7761,-261.393 -32.6841,-392.05"
           inkscape:connector-curvature="0" /><path
           id="path3018"
           style="fill:none;stroke:#333333;stroke-width:187.84660339;stroke-linecap:round;stroke-linejoin:round;stroke-miterlimit:4;stroke-opacity:1;stroke-dasharray:none"
           d="m 305.07963,12967.878 c 181.30934,12.873 108.34143,-37.296 344.48157,-37.296 134.29788,0 21.07027,-43.152 31.65754,-63.324"
           inkscape:connector-curvature="0" /><path
           id="path3020"
           style="fill:none;stroke:#333333;stroke-width:187.84660339;stroke-linecap:round;stroke-linejoin:round;stroke-miterlimit:4;stroke-opacity:1;stroke-dasharray:none"
           d="m 651.75485,6388.5736 c -84.43745,557.5559 -182.48597,1467.74 -177.83399,1677.4802 11.92271,538.146 -32.33527,1051.2273 32.22299,1849.5634 55.03374,680.5528 203.14719,2320.9778 143.41735,3014.9648"
           inkscape:connector-curvature="0" /><path
           id="path3022"
           style="fill:none;stroke:#333333;stroke-width:187.84660339;stroke-linecap:round;stroke-linejoin:round;stroke-miterlimit:4;stroke-opacity:1;stroke-dasharray:none"
           d="m 731.53633,12936.638 c 932.87057,148.863 2540.59097,258.065 3602.47377,307.672 707.6625,33.045 1022.1925,69.459 1667.2538,69.459 331.213,0 1945.1295,158.809 1935.224,39.702"
           inkscape:connector-curvature="0" /><path
           id="path3024"
           style="fill:none;stroke:#333333;stroke-width:187.84660339;stroke-linecap:round;stroke-linejoin:round;stroke-miterlimit:4;stroke-opacity:1;stroke-dasharray:none"
           d="M 1407.5133,6324.4485 C 1285.5591,5674.254 1160.9102,4817.8084 1078.3214,4169.1378 1007.7477,3614.9706 816.14623,2658.8521 815.73718,2118.9939 c 161.87285,21.4312 360.64882,11.2769 412.64262,15.5239 43.0469,3.509 45.4611,64.2134 52.1183,325.7469 13.4707,529.8005 141.8172,1125.0375 206.4076,1640.7375 48.8578,389.9644 364.627,1852.0899 481.6124,2141.7158"
           inkscape:connector-curvature="0" /><path
           id="path3026"
           style="fill:none;stroke:#333333;stroke-width:187.84660339;stroke-linecap:round;stroke-linejoin:round;stroke-miterlimit:4;stroke-opacity:1;stroke-dasharray:none"
           d="m 815.73718,2118.9939 c -99.62859,27.0696 -92.04907,130.5722 -131.52674,189.5642 78.65858,307.3394 63.66396,714.2153 93.52486,873.4374 119.6682,638.2998 154.31743,1060.0099 245.0992,1686.4232 60.5761,417.796 156.856,923.9395 234.5561,1456.0298"
           inkscape:connector-curvature="0" /><path
           id="path3028"
           style="fill:none;stroke:#333333;stroke-width:187.84660339;stroke-linecap:round;stroke-linejoin:round;stroke-miterlimit:4;stroke-opacity:1;stroke-dasharray:none"
           d="m 2712.859,6361.7045 c -68.5204,-361.4509 -266.4061,-699.2408 -412.8272,-1052.0695 -40.1995,-96.8495 -389.4269,-918.1646 -343.4485,-973.9484 22.8709,-21.6958 122.9567,-85.1793 203.6164,-109.8027 252.37,834.9904 616.8887,1269.7501 898.5661,2139.1892"
           inkscape:connector-curvature="0" /><path
           id="path3030"
           style="fill:none;stroke:#333333;stroke-width:187.84660339;stroke-linecap:round;stroke-linejoin:round;stroke-miterlimit:4;stroke-opacity:1;stroke-dasharray:none"
           d="m 3303.7889,6374.0562 c -280.4423,-567.7421 -735.2095,-1571.3668 -905.5521,-2180.3753 -120.5786,5.013 -190.8676,7.0181 -187.122,5.1333"
           inkscape:connector-curvature="0" /><path
           id="path3032"
           style="fill:none;stroke:#333333;stroke-width:187.84660339;stroke-linecap:round;stroke-linejoin:round;stroke-miterlimit:4;stroke-opacity:1;stroke-dasharray:none"
           d="m 5445.3522,6825.6994 c 88.7887,-838.8804 527.7191,-3047.8093 751.9767,-3630.8107 5.4941,-14.2688 219.7258,-92.7389 207.9756,-165.5343"
           inkscape:connector-curvature="0" /><path
           id="path3034"
           style="fill:none;stroke:#333333;stroke-width:187.84660339;stroke-linecap:round;stroke-linejoin:round;stroke-miterlimit:4;stroke-opacity:1;stroke-dasharray:none"
           d="m 5600.0306,6868.4094 c 240.8603,-1171.3367 632.8699,-2510.1045 999.6545,-3649.178 50.5302,-156.8881 23.3401,-267.906 122.4754,-224.1854 279.6803,123.3978 574.1587,103.7833 641.4921,246.6833 25.4656,54.1234 -72.1858,136.0825 -142.3667,348.2569 -375.9281,1136.507 -744.4372,2335.3945 -1106.0083,3459.69"
           inkscape:connector-curvature="0" /><path
           id="path3036"
           style="fill:none;stroke:#333333;stroke-width:187.84660339;stroke-linecap:round;stroke-linejoin:round;stroke-miterlimit:4;stroke-opacity:1;stroke-dasharray:none"
           d="m 5673.6201,10124.957 c 431.6718,141.564 583.623,168.353 741.0686,160.814 203.0429,-9.666 349.5402,-56.947 485.4101,-85.261 258.0646,-53.818 477.9108,-50.93 1149.3199,-71.663 303.7022,-9.425 587.473,-60.797 911.5877,-60.797 121.5531,0 607.7252,-60.757 607.7252,-60.757"
           inkscape:connector-curvature="0" /><path
           id="path3038"
           style="fill:none;stroke:#333333;stroke-width:187.84660339;stroke-linecap:round;stroke-linejoin:round;stroke-miterlimit:4;stroke-opacity:1;stroke-dasharray:none"
           d="m 10135.952,10250.399 c 62.762,17.165 183.152,82.253 349.14,118.906 157.766,34.891 359.005,9.505 506.183,45.237 238.174,57.749 744.879,693.025 -160.413,930.276 -41.186,4.01 748.046,57.508 1108.615,-344.888 239.617,-267.409 102.705,-626.333 -120.43,-970.7 -19.41,-29.9569 212.988,-440.334 214.392,-695.3112 1.364,-247.1161 -230.433,-868.5566 -397.143,-863.664"
           inkscape:connector-curvature="0" /><path
           id="path3040"
           style="fill:none;stroke:#333333;stroke-width:187.84660339;stroke-linecap:round;stroke-linejoin:round;stroke-miterlimit:4;stroke-opacity:1;stroke-dasharray:none"
           d="m 11736.273,8508.2326 c 0,-6.6572 119.829,-409.1337 -23.299,-518.8562 -15.079,-11.5498 102.464,43.1511 84.096,-190.1698 -20.813,-265.2832 146.217,-672.893 324.115,-850.7912 20.252,-20.2521 121.553,-40.5443 121.553,-101.3008"
           inkscape:connector-curvature="0" /><path
           id="path3042"
           style="fill:none;stroke:#333333;stroke-width:187.84660339;stroke-linecap:round;stroke-linejoin:round;stroke-miterlimit:4;stroke-opacity:1;stroke-dasharray:none"
           d="m 11862.92,7409.2423 c 567.221,767.9778 541.956,2002.7977 1207.79,2668.8727 711.513,711.834 2246.707,895.788 3610.058,1401.771 1031.376,382.745 1164.438,474.702 1606.898,548.853 607.324,101.823 1868.252,57.629 1869.696,-29.396 1.042,-63.483 -639.568,-234.884 -971.904,-616.788 -466.641,-536.18 -1380.795,-794.927 -1591.378,-1127.785"
           inkscape:connector-curvature="0" /><path
           id="path3044"
           style="fill:none;stroke:#333333;stroke-width:187.84660339;stroke-linecap:round;stroke-linejoin:round;stroke-miterlimit:4;stroke-opacity:1;stroke-dasharray:none"
           d="m 11108.297,5185.9966 c 1045.893,509.7126 1428.679,3200.2819 2334.612,4122.3762 302.901,308.2743 3336.473,599.9856 4140.183,866.0712 705.657,233.642 2189.799,67.774 2926.416,-208.8985 102.384,-38.4591 -1650.33,-616.8681 -2198.542,-1093.135 -179.381,-155.8814 -1688.227,-700.484 -2224.69,-818.147 -750.973,-164.7444 -659.418,-288.864 -1130.27,-1286.0722 -349.902,-741.0685 -808.282,-1384.9267 -1417.892,-1935.7853 -877.9,-793.243 -1224.032,-649.2722 -1668.537,-413.9862"
           inkscape:connector-curvature="0" /><path
           id="path3046"
           style="fill:none;stroke:#333333;stroke-width:187.84660339;stroke-linecap:round;stroke-linejoin:round;stroke-miterlimit:4;stroke-opacity:1;stroke-dasharray:none"
           d="m 14574.785,5948.6808 c 487.736,-239.3364 672.572,-475.3443 786.665,-998.9326 61.639,-283.1293 289.987,-512.1992 574.76,-650.4352 216.358,-105.0305 759.717,-226.9445 923.258,-300.1811 307.191,-137.5583 707.662,-641.4159 852.797,-1041.4621"
           inkscape:connector-curvature="0" /><path
           id="path3048"
           style="fill:none;stroke:#333333;stroke-width:187.84660339;stroke-linecap:round;stroke-linejoin:round;stroke-miterlimit:4;stroke-opacity:1;stroke-dasharray:none"
           d="m 17596.566,3268.6265 c 196.506,-179.6346 859.294,-466.8101 1025.561,-544.7629 96.93,-45.445 319.223,-187.0738 378.576,-247.73 892.779,-912.4299 173.887,-1531.17936 -369.271,-1803.39646 -456.857,-228.96567 -1507.362,-516.39192 -2084.368,-578.473807 -221.851,-23.858243 322.67,241.590997 397.583,298.283797 353.351,267.29681 1450.416,1083.51087 569.868,1661.38717 -139.319,91.4234 -432.273,155.7772 -644.54,247.1846 -125.002,53.8106 -523.949,236.469 -677.023,514.7456"
           inkscape:connector-curvature="0" /><path
           id="path3050"
           style="fill:none;stroke:#333333;stroke-width:187.84660339;stroke-linecap:round;stroke-linejoin:round;stroke-miterlimit:4;stroke-opacity:1;stroke-dasharray:none"
           d="m 16363.069,2983.797 c -116.5,-20.4085 -135.709,-113.5083 -251.166,-127.4041 -129.413,-15.6041 -343.484,78.45 -566.499,125.2746 -246.796,51.7894 -484.969,79.204 -547.651,178.584"
           inkscape:connector-curvature="0" /><path
           id="path3052"
           style="fill:none;stroke:#333333;stroke-width:187.84660339;stroke-linecap:round;stroke-linejoin:round;stroke-miterlimit:4;stroke-opacity:1;stroke-dasharray:none"
           d="m 15301.616,3261.5443 c -270.617,-141.8011 -598.341,-182.3296 -925.022,-182.3296 -222.734,0 -338.191,53.8267 -543.68,-10.7757 -102.705,-32.3032 -332.818,-137.4179 -424.053,-215.4789"
           inkscape:connector-curvature="0" /><path
           id="path3054"
           style="fill:none;stroke:#333333;stroke-width:187.84660339;stroke-linecap:round;stroke-linejoin:round;stroke-miterlimit:4;stroke-opacity:1;stroke-dasharray:none"
           d="m 13275.879,4152.8558 c 84.818,-185.3654 326.721,-589.8632 327.042,-810.4473 0.401,-298.0154 -249.482,-524.1779 -419.881,-729.5027 -61.117,-73.6897 -94.243,-297.5463 -31.24,-488.2254 40.584,-122.8804 -146.258,-271.2305 -198.712,-296.7161 -122.315,-59.4692 -616.588,-41.7355 -826.128,27.9921 -181.868,60.5319 -334.301,312.0837 -494.313,299.0662 -95.285,-7.752 -160.133,-123.8189 -209.7,-178.4435 -182.269,-200.8133 -217.4,-149.0239 -312.244,-126.0126 -153.395,37.284 -415.109,19.394 -300.494,194.7696 214.111,327.5917 218.402,510.3584 528.36,631.1575 57.749,22.4779 742.674,-78.4219 742.112,-144.2315"
           inkscape:connector-curvature="0" /><path
           id="path3056"
           style="fill:none;stroke:#333333;stroke-width:187.84660339;stroke-linecap:round;stroke-linejoin:round;stroke-miterlimit:4;stroke-opacity:1;stroke-dasharray:none"
           d="m 12384.543,3322.3127 c -255.458,-422.8568 -398.947,-567.5415 -131.939,-1039.6494"
           inkscape:connector-curvature="0" /><path
           id="path3058"
           style="fill:none;stroke:#333333;stroke-width:187.84660339;stroke-linecap:round;stroke-linejoin:round;stroke-miterlimit:4;stroke-opacity:1;stroke-dasharray:none"
           d="m 11047.54,1884.0287 c -67.294,151.1693 15.039,159.4908 79.364,285.2666 69.259,135.505 197.59,231.1113 346.012,281.9462"
           inkscape:connector-curvature="0" /><path
           id="path3060"
           style="fill:none;stroke:#333333;stroke-width:187.84660339;stroke-linecap:round;stroke-linejoin:round;stroke-miterlimit:4;stroke-opacity:1;stroke-dasharray:none"
           d="m 12105.144,2647.543 c -1632.525,480.297 -1763.703,675.644 -2387.669,1888.5798 -244.6306,475.5047 -144.0913,1343.8611 145.935,1717.8242 258.226,333.0176 826.971,1175.5875 566.619,1657.9498"
           inkscape:connector-curvature="0" /><path
           id="path3062"
           style="fill:none;stroke:#333333;stroke-width:187.84660339;stroke-linecap:round;stroke-linejoin:round;stroke-miterlimit:4;stroke-opacity:1;stroke-dasharray:none"
           d="m 10824.686,3058.9626 c -81.008,-60.7685 -101.26,-121.549 -202.562,-121.549 -139.238,0 -421.124,75.8994 -546.928,40.5123 -220.4476,-61.9877 -859.8944,-557.6241 -662.9076,-706.8845 146.2573,-25.7383 240.7407,-81.538 388.2802,-124.9017 124.3603,-36.5461 359.3654,39.1489 570.3894,22.5742 159.37,-12.5002 309.717,-47.9034 413.224,-41.5911"
           inkscape:connector-curvature="0" /><path
           id="path3064"
           style="fill:none;stroke:#333333;stroke-width:187.84660339;stroke-linecap:round;stroke-linejoin:round;stroke-miterlimit:4;stroke-opacity:1;stroke-dasharray:none"
           d="m 10293.478,2640.4127 c -210.742,15.0106 -673.4546,-264.6817 -481.6401,-432.2693"
           inkscape:connector-curvature="0" /><path
           id="path3066"
           style="fill:none;stroke:#333333;stroke-width:187.84660339;stroke-linecap:round;stroke-linejoin:round;stroke-miterlimit:4;stroke-opacity:1;stroke-dasharray:none"
           d="m 10756.911,7709.8966 c -100.538,50.7307 -253.252,110.4845 -357.561,205.9303 -178.178,163.0199 -53.617,216.277 -194.5,304.6647"
           inkscape:connector-curvature="0" /><path
           id="path3068"
           style="fill:none;stroke:#333333;stroke-width:187.84660339;stroke-linecap:round;stroke-linejoin:round;stroke-miterlimit:4;stroke-opacity:1;stroke-dasharray:none"
           d="m 10495.038,8639.9719 c -403.921,-280.5225 -460.386,-334.301 -1047.8592,-212.7479 -79.325,16.4022 -847.0618,189.6484 -874.2118,200.1555 -844.9359,327.2427 -1703.9082,263.0775 -2431.3015,1235.3814"
           inkscape:connector-curvature="0" /><path
           id="path3070"
           style="fill:none;stroke:#333333;stroke-width:187.84660339;stroke-linecap:round;stroke-linejoin:round;stroke-miterlimit:4;stroke-opacity:1;stroke-dasharray:none"
           d="m 5673.6201,10124.957 c 169.9176,-218.6842 754.062,-369.432 1201.7751,-576.6458 514.7256,-238.2133 1177.4724,-254.0143 1735.7903,-401.594 104.6295,-27.6314 693.1853,-177.8182 1025.2805,-203.5244 296.4035,-22.899 824.724,136.3912 980.846,222.413"
           inkscape:connector-curvature="0" /><path
           id="path3072"
           style="fill:none;stroke:#333333;stroke-width:187.84660339;stroke-linecap:round;stroke-linejoin:round;stroke-miterlimit:4;stroke-opacity:1;stroke-dasharray:none"
           d="m 6582.4407,10070.335 c -188.4454,-93.2391 -362.5337,-267.3278 -536.7824,-378.534 -262.3156,-167.4714 10.9081,-285.5759 59.1122,-258.4254 68.8573,38.7393 159.4908,99.8968 253.3325,165.9071 m 166.7494,119.0665 c 79.1238,56.9863 152.4325,109.8828 207.8152,147.1389 115.698,77.84 52.1342,59.6734 44.4746,158.2069 -2.1256,27.11 -77.4797,64.647 -105.2311,64.647 -20.2521,0 -81.0487,-6.697 -81.0487,-6.697 -90.2324,-80.287 49.5676,-148.0619 141.8453,-217.9212"
           inkscape:connector-curvature="0" /><path
           id="path3074"
           style="fill:none;stroke:#333333;stroke-width:187.84660339;stroke-linecap:round;stroke-linejoin:round;stroke-miterlimit:4;stroke-opacity:1;stroke-dasharray:none"
           d="m 9913.0983,10331.408 c -60.7568,0 -101.2604,0 -141.805,-40.504 -40.5045,-40.505 -160.7338,-186.44 -162.0572,-364.6592 -1.0433,-143.3292 70.1403,-316.1747 206.8925,-387.7188 114.4144,-59.7939 196.7064,-99.7772 343.8454,-12.9935 205.289,121.0718 263.84,468.8073 70.301,663.5895 -59.753,60.155 -223.536,142.286 -317.1767,142.286 z"
           inkscape:connector-curvature="0" /><path
           id="path3076"
           style="fill:none;stroke:#333333;stroke-width:187.84660339;stroke-linecap:round;stroke-linejoin:round;stroke-miterlimit:4;stroke-opacity:1;stroke-dasharray:none"
           d="m 9772.3758,10064.28 c -68.4966,1.002 -114.2538,-163.4607 -107.1154,-188.1241 25.9065,-89.9919 25.0641,-168.1131 166.8298,-172.725 91.6357,-3.0083 110.2031,4.8921 157.7656,126.726 42.9102,109.963 22.6192,175.1711 -78.9225,222.9741 -23.4212,11.029 -107.7579,10.748 -138.5575,11.149 z"
           inkscape:connector-curvature="0" /><path
           id="path3078"
           style="fill:none;stroke:#333333;stroke-width:187.84660339;stroke-linecap:round;stroke-linejoin:round;stroke-miterlimit:4;stroke-opacity:1;stroke-dasharray:none"
           d="m 9951.5975,8365.0639 c 113.4525,-95.0849 209.0185,-134.1856 353.1495,-171.0004 84.498,-21.5756 197.87,-14.758 286.257,-29.7165"
           inkscape:connector-curvature="0" /><g
           id="g3937"
           style="stroke:#333333;stroke-width:93.68141174;stroke-miterlimit:4;stroke-opacity:1;stroke-dasharray:none"
           transform="matrix(4.0103282,0,0,4.0103282,6.5451882,3.5296711)"><path
             inkscape:connector-curvature="0"
             d="m 445.176,2509.32 c 145.121,7.27 168.512,10.9 308.504,39.98"
             style="fill:none;stroke:#333333;stroke-width:93.68141174;stroke-linecap:round;stroke-linejoin:round;stroke-miterlimit:4;stroke-opacity:1;stroke-dasharray:none"
             id="path3084" /><g
             style="stroke:#333333;stroke-width:93.68141174;stroke-miterlimit:4;stroke-opacity:1;stroke-dasharray:none"
             id="g3894"><path
               id="path3080"
               style="fill:none;stroke:#333333;stroke-width:93.68141174;stroke-linecap:round;stroke-linejoin:round;stroke-miterlimit:4;stroke-opacity:1;stroke-dasharray:none"
               d="m 1277.96,2462.58 c -126.99,140.38 -322.718,73.81 -409.612,-102.23 -41.789,-84.65 -41.36,-289.55 80.367,-376.99 64.585,-46.42 315.805,-14.05 359.065,40.3 85.52,107.49 63.84,335.39 -29.82,438.92 z"
               inkscape:connector-curvature="0" /><path
               id="path3082"
               style="fill:none;stroke:#333333;stroke-width:93.68141174;stroke-linecap:round;stroke-linejoin:round;stroke-miterlimit:4;stroke-opacity:1;stroke-dasharray:none"
               d="m 458.137,1877 c -20.739,421.55 -22,774.16 -18.145,1108.38 12.961,36.34 388.871,79.95 477.016,87.21"
               inkscape:connector-curvature="0" /><path
               id="path3086"
               style="fill:none;stroke:#333333;stroke-width:93.68141174;stroke-linecap:round;stroke-linejoin:round;stroke-miterlimit:4;stroke-opacity:1;stroke-dasharray:none"
               d="m 1487.09,3127.08 c 2.54,-37.23 7.16,-306.3 13.94,-571.29 m -8.32,-85.74 c 1.41,-20.05 2.67,-40.14 3.87,-60.22 m 3.51,-60.28 c 5.87,-101 13.24,-223.91 29.5,-342 151.05,10.53 253.72,27.93 421.25,71.69"
               inkscape:connector-curvature="0" /></g></g></g></g></g></svg>